<svg width="22" height="19" viewBox="0 0 22 19" fill="none" xmlns="http://www.w3.org/2000/svg">
<path d="M11.5943 17.2184L11.5943 17.2184L11.5902 17.222L10.4029 18.2856L9.22689 17.2697C7.86152 16.0122 6.85324 15.0847 6.20222 14.4874C5.5615 13.8996 4.77961 13.1244 3.85517 12.1592C2.93379 11.1973 2.301 10.4337 1.93667 9.86154C1.56574 9.27904 1.22953 8.606 0.929927 7.83963C0.640926 7.1004 0.5 6.37841 0.5 5.67092C0.5 4.21867 1.00217 3.00616 2.01362 2.00296C3.02525 0.99959 4.2497 0.5 5.71759 0.5C7.45883 0.5 8.88408 1.16138 10.0282 2.50526L10.4089 2.95241L10.7897 2.50526C11.9338 1.16138 13.3591 0.5 15.1003 0.5C16.6038 0.5 17.8436 1.00167 18.8531 2.00296C19.8646 3.00616 20.3668 4.21867 20.3668 5.67092C20.3668 6.37468 20.2192 7.09381 19.9157 7.83141C19.5992 8.60045 19.2539 9.27633 18.8812 9.86154C18.5169 10.4337 17.8841 11.1973 16.9627 12.1592C16.0374 13.1253 15.2621 13.9021 14.6355 14.4917C14.007 15.0831 12.9945 15.9911 11.5943 17.2184ZM10.0568 16.5438L10.4089 16.893L10.7611 16.5438L10.8493 16.4563C12.4411 15.0385 13.6073 13.9789 14.3447 13.28C15.0891 12.5745 15.9043 11.733 16.79 10.7569C17.6848 9.77079 18.3325 8.8803 18.7047 8.08915C19.0756 7.30101 19.2654 6.49355 19.2654 5.67092C19.2654 4.51065 18.8667 3.52183 18.0627 2.74293C17.2621 1.96735 16.2628 1.58418 15.1003 1.58418C14.2157 1.58418 13.3812 1.84178 12.6055 2.34274C11.9284 2.78008 11.4106 3.33535 11.0667 4.00765H9.76346C9.44337 3.33405 8.93654 2.77888 8.26124 2.34274C7.48198 1.83946 6.63069 1.58418 5.71759 1.58418C4.55508 1.58418 3.5614 1.96752 2.77547 2.74704C1.98926 3.52683 1.60134 4.51438 1.60134 5.67092C1.60134 6.48957 1.78124 7.29409 2.13374 8.08074C2.4915 8.87915 3.1435 9.77362 4.05539 10.7603C4.95667 11.7355 5.77903 12.5758 6.52205 13.28C7.25778 13.9773 8.4067 15.036 9.96682 16.4545L10.0568 16.5438Z" fill="#299EF6" stroke="#299EF6"/>
</svg>
